<?xml version="1.0" encoding="utf-8"?>
<!-- Generator: Adobe Illustrator 28.3.0, SVG Export Plug-In . SVG Version: 6.00 Build 0)  -->
<svg version="1.1" id="Ebene_1" xmlns="http://www.w3.org/2000/svg" xmlns:xlink="http://www.w3.org/1999/xlink" x="0px" y="0px"
	 viewBox="0 0 94.22 84.59" style="enable-background:new 0 0 94.22 84.59;" xml:space="preserve">
<path d="M49.8,82.35c-13.89-0.61-24.22-2.52-32.84-9.2C5.21,64.03,4.23,51.28,6.19,37.81c0.2-1.35,0.45-2.75,0.99-3.99
	c1.38-3.2,0.63-5.87-1.15-8.77C1.22,17.21,3,9.01,10.12,4.87c4.09-2.38,8.43-2.67,12.55-0.51c4.5,2.35,8.85,2.55,13.73,1.35
	c7.24-1.79,14.53-1.39,21.91,0.04c3.17,0.61,6.92-0.14,10.03-1.29c4.16-1.53,8.12-2.55,12.32-0.79c8.36,3.5,11.18,13.01,5.96,20.95
	c-1.67,2.54-1.77,4.58-0.74,7.26c2.96,7.67,3.21,15.63,1.7,23.62c-2.11,11.2-9.13,18.63-19.45,22.42
	C61.31,80.43,53.93,81.39,49.8,82.35z M47.12,9.2C47.12,9.2,47.21,9.53,47.12,9.2c-6.09,0.6-12.11,1.3-17.34,3.86
	C14.59,20.46,7.05,38.09,10.96,54.87c2.31,9.9,8.41,16.07,17.86,19.39c12.57,4.41,25.05,4.01,37.43-0.46
	c6.18-2.23,11.08-6.21,14.08-12.2C90.09,42.09,78.86,8.93,47.12,9.2z"/>
<path d="M63.1,33.44c9.15-0.03,18.66,10.3,17.91,19.45c-0.36,4.43-2.13,7.94-6.5,9.62c-4.37,1.68-8.29,0.36-11.34-2.7
	c-3.23-3.25-6.11-6.91-8.76-10.66c-2.28-3.24-2.81-7.11-0.72-10.62C55.71,35.13,59.01,33.36,63.1,33.44z M62.12,47.3
	c2.61-0.33,4.29-1.64,4.07-4.35c-0.21-2.64-2.21-4.32-4.53-3.73c-1.54,0.39-3.37,2.5-3.7,4.12C57.42,46.04,59.64,47.13,62.12,47.3z"
	/>
<path d="M30.04,34.25c8.08,0.08,12.5,7.38,8.28,14.31c-4.52,6.21-10.38,17.04-19.6,12.9C5.11,54.41,17.89,33.64,30.04,34.25z
	 M35.21,43.4c1.23-5.76-5.19-6.37-7.86-2.27C25.08,46.46,34.09,47.81,35.21,43.4z"/>
<path d="M46.61,61.29c-3.72,0-6.59-2.22-6.69-5.17c-0.11-3.1,2.87-5.55,6.73-5.54c3.74,0.01,6.57,2.22,6.69,5.2
	C53.45,58.93,50.57,61.29,46.61,61.29z"/>
<path d="M46.75,71.28c-3.33-1.65-6.19-2.94-8.89-4.51c-0.55-0.32-0.52-1.66-0.75-2.53c0.87,0.05,2-0.22,2.57,0.22
	c4.73,3.6,9.31,3.58,14-0.07c0.55-0.43,1.69-0.09,2.55-0.11c-0.18,0.77-0.11,1.97-0.58,2.25C52.87,68.18,49.95,69.61,46.75,71.28z"
	/>
</svg>
